# xmcd
#
# Track frame offsets: 
#        150
#        23737
#        43115
#        60150
#        81200
#        103340
#        135975
#        158250
#        175152
#        200327
#        220875
#        251620
#
# Disc length: 3641 seconds
#
# Revision: 1
# Processed by: cddbd v1.5.2PL0 Copyright (c) Steve Scherf et al.
# Submitted via: ExactAudioCopyFreeDBPlugin 1.0
#
DISCID=940e370c
DTITLE=Joe 'Guitar' Hughes - Texas Guitar Slinger
DYEAR=1996
DGENRE=Blues
TTITLE0=A Blue Song
TTITLE1=Texas Guitar Slinger
TTITLE2=My Baby Told Me
TTITLE3=U Turn
TTITLE4=Walk On
TTITLE5=Put It In Writing
TTITLE6=Ouchee Baby
TTITLE7=Bad Dreams
TTITLE8=Bystanders
TTITLE9=That's Life
TTITLE10=Moving To The Country (Blues Jam)
TTITLE11=Don't Turn Me Back On You
EXTD=
EXTT0=
EXTT1=
EXTT2=
EXTT3=
EXTT4=
EXTT5=
EXTT6=
EXTT7=
EXTT8=
EXTT9=
EXTT10=
EXTT11=
PLAYORDER=
